<svg width="156" height="48" viewBox="0 0 156 48" fill="none" xmlns="http://www.w3.org/2000/svg">
<path d="M54.5 15H42.5C40.8431 15 39.5 16.3431 39.5 18V27.7574C39.5 28.553 39.8161 29.3161 40.3787 29.8787L43.2197 32.7197C43.6921 33.1921 44.5 32.8575 44.5 32.1893V31C44.5 29.8954 45.3954 29 46.5 29H54.5C56.1569 29 57.5 27.6569 57.5 26V18C57.5 16.3431 56.1569 15 54.5 15Z" stroke="#686B6E" stroke-width="1.5" stroke-linecap="round"/>
<path d="M79.284 31.192C78.4413 31.192 77.6573 31.0373 76.932 30.728C76.2173 30.4187 75.5933 29.992 75.06 29.448C74.5373 28.8933 74.1267 28.2427 73.828 27.496C73.5293 26.7493 73.38 25.928 73.38 25.032C73.38 24.1467 73.524 23.3307 73.812 22.584C74.1107 21.8267 74.5267 21.176 75.06 20.632C75.5933 20.0773 76.2173 19.6507 76.932 19.352C77.6467 19.0427 78.4307 18.888 79.284 18.888C80.1267 18.888 80.8787 19.032 81.54 19.32C82.212 19.608 82.7773 19.9867 83.236 20.456C83.6947 20.9147 84.0253 21.416 84.228 21.96L82.532 22.76C82.276 22.12 81.8653 21.6027 81.3 21.208C80.7453 20.8027 80.0733 20.6 79.284 20.6C78.4947 20.6 77.796 20.7867 77.188 21.16C76.58 21.5333 76.1053 22.0507 75.764 22.712C75.4333 23.3733 75.268 24.1467 75.268 25.032C75.268 25.9173 75.4333 26.696 75.764 27.368C76.1053 28.0293 76.58 28.5467 77.188 28.92C77.796 29.2827 78.4947 29.464 79.284 29.464C80.0733 29.464 80.7453 29.2667 81.3 28.872C81.8653 28.4773 82.276 27.96 82.532 27.32L84.228 28.12C84.0253 28.6533 83.6947 29.1547 83.236 29.624C82.7773 30.0933 82.212 30.472 81.54 30.76C80.8787 31.048 80.1267 31.192 79.284 31.192ZM86.1435 31V18.888H87.9515V24.04L87.6635 23.816C87.8768 23.272 88.2182 22.8613 88.6875 22.584C89.1568 22.296 89.7008 22.152 90.3195 22.152C90.9595 22.152 91.5248 22.2907 92.0155 22.568C92.5062 22.8453 92.8902 23.2293 93.1675 23.72C93.4448 24.2107 93.5835 24.7707 93.5835 25.4V31H91.7915V25.896C91.7915 25.4587 91.7062 25.0907 91.5355 24.792C91.3755 24.4827 91.1515 24.248 90.8635 24.088C90.5755 23.9173 90.2448 23.832 89.8715 23.832C89.5088 23.832 89.1782 23.9173 88.8795 24.088C88.5915 24.248 88.3622 24.4827 88.1915 24.792C88.0315 25.1013 87.9515 25.4693 87.9515 25.896V31H86.1435ZM98.2605 31.192C97.6738 31.192 97.1565 31.0907 96.7085 30.888C96.2712 30.6747 95.9298 30.3867 95.6845 30.024C95.4392 29.6507 95.3165 29.2133 95.3165 28.712C95.3165 28.2427 95.4178 27.8213 95.6205 27.448C95.8338 27.0747 96.1592 26.76 96.5965 26.504C97.0338 26.248 97.5832 26.0667 98.2445 25.96L101.252 25.464V26.888L98.5965 27.352C98.1165 27.4373 97.7645 27.592 97.5405 27.816C97.3165 28.0293 97.2045 28.3067 97.2045 28.648C97.2045 28.9787 97.3272 29.2507 97.5725 29.464C97.8285 29.6667 98.1538 29.768 98.5485 29.768C99.0392 29.768 99.4658 29.6613 99.8285 29.448C100.202 29.2347 100.49 28.952 100.692 28.6C100.895 28.2373 100.996 27.8373 100.996 27.4V25.176C100.996 24.7493 100.836 24.4027 100.516 24.136C100.207 23.8587 99.7912 23.72 99.2685 23.72C98.7885 23.72 98.3672 23.848 98.0045 24.104C97.6525 24.3493 97.3912 24.6693 97.2205 25.064L95.7165 24.312C95.8765 23.8853 96.1378 23.512 96.5005 23.192C96.8632 22.8613 97.2845 22.6053 97.7645 22.424C98.2552 22.2427 98.7725 22.152 99.3165 22.152C99.9992 22.152 100.602 22.28 101.124 22.536C101.658 22.792 102.068 23.1493 102.356 23.608C102.655 24.056 102.804 24.5787 102.804 25.176V31H101.076V29.432L101.444 29.48C101.242 29.832 100.98 30.136 100.66 30.392C100.351 30.648 99.9938 30.8453 99.5885 30.984C99.1938 31.1227 98.7512 31.192 98.2605 31.192ZM108.656 31.096C107.75 31.096 107.046 30.84 106.544 30.328C106.043 29.816 105.792 29.096 105.792 28.168V23.976H104.272V22.344H104.512C104.918 22.344 105.232 22.2267 105.456 21.992C105.68 21.7573 105.792 21.4373 105.792 21.032V20.36H107.6V22.344H109.568V23.976H107.6V28.088C107.6 28.3867 107.648 28.6427 107.744 28.856C107.84 29.0587 107.995 29.2187 108.208 29.336C108.422 29.4427 108.699 29.496 109.04 29.496C109.126 29.496 109.222 29.4907 109.328 29.48C109.435 29.4693 109.536 29.4587 109.632 29.448V31C109.483 31.0213 109.318 31.0427 109.136 31.064C108.955 31.0853 108.795 31.096 108.656 31.096ZM114.747 31.192C113.861 31.192 113.083 30.9733 112.411 30.536C111.749 30.0987 111.285 29.512 111.019 28.776L112.411 28.12C112.645 28.6107 112.965 29 113.371 29.288C113.787 29.576 114.245 29.72 114.747 29.72C115.173 29.72 115.52 29.624 115.787 29.432C116.053 29.24 116.187 28.9787 116.187 28.648C116.187 28.4347 116.128 28.264 116.011 28.136C115.893 27.9973 115.744 27.8853 115.563 27.8C115.392 27.7147 115.216 27.6507 115.035 27.608L113.675 27.224C112.928 27.0107 112.368 26.6907 111.995 26.264C111.632 25.8267 111.451 25.32 111.451 24.744C111.451 24.2213 111.584 23.768 111.851 23.384C112.117 22.9893 112.485 22.6853 112.955 22.472C113.424 22.2587 113.952 22.152 114.539 22.152C115.328 22.152 116.032 22.3493 116.651 22.744C117.269 23.128 117.707 23.6667 117.963 24.36L116.571 25.016C116.4 24.6 116.128 24.2693 115.755 24.024C115.392 23.7787 114.981 23.656 114.523 23.656C114.128 23.656 113.813 23.752 113.579 23.944C113.344 24.1253 113.227 24.3653 113.227 24.664C113.227 24.8667 113.28 25.0373 113.387 25.176C113.493 25.304 113.632 25.4107 113.803 25.496C113.973 25.5707 114.149 25.6347 114.331 25.688L115.739 26.104C116.453 26.3067 117.003 26.6267 117.387 27.064C117.771 27.4907 117.963 28.0027 117.963 28.6C117.963 29.112 117.824 29.5653 117.547 29.96C117.28 30.344 116.907 30.648 116.427 30.872C115.947 31.0853 115.387 31.192 114.747 31.192Z" fill="#9B9C9E"/>
</svg>
