<svg width="42" height="42" viewBox="0 0 42 42" fill="none" xmlns="http://www.w3.org/2000/svg">
<g filter="url(#filter0_dd_1776_1793)">
<path d="M13.5 14.3333V16.8333C13.5 17.7538 14.2462 18.5 15.1667 18.5H26.8333C27.7538 18.5 28.5 17.7538 28.5 16.8333V14.3333M13.5 14.3333V5.16667C13.5 4.24619 14.2462 3.5 15.1667 3.5H26.8333C27.7538 3.5 28.5 4.24619 28.5 5.16667V14.3333M13.5 14.3333L17.3215 10.5118C17.9724 9.86097 19.0276 9.86097 19.6785 10.5118L22.6667 13.5M25.1667 16L22.6667 13.5M22.6667 13.5L23.9882 12.1785C24.639 11.5276 25.6943 11.5276 26.3452 12.1785L28.5 14.3333M26 7.25C26 7.94036 25.4404 8.5 24.75 8.5C24.0596 8.5 23.5 7.94036 23.5 7.25C23.5 6.55964 24.0596 6 24.75 6C25.4404 6 26 6.55964 26 7.25Z" stroke="#B6F09C" stroke-width="1.5" stroke-linecap="round" stroke-linejoin="round"/>
</g>
<defs>
<filter id="filter0_dd_1776_1793" x="-1" y="-1" width="44" height="44" filterUnits="userSpaceOnUse" color-interpolation-filters="sRGB">
<feFlood flood-opacity="0" result="BackgroundImageFix"/>
<feColorMatrix in="SourceAlpha" type="matrix" values="0 0 0 0 0 0 0 0 0 0 0 0 0 0 0 0 0 0 127 0" result="hardAlpha"/>
<feMorphology radius="4" operator="erode" in="SourceAlpha" result="effect1_dropShadow_1776_1793"/>
<feOffset dy="4"/>
<feGaussianBlur stdDeviation="3"/>
<feColorMatrix type="matrix" values="0 0 0 0 0.713726 0 0 0 0 0.941176 0 0 0 0 0.611765 0 0 0 0.16 0"/>
<feBlend mode="normal" in2="BackgroundImageFix" result="effect1_dropShadow_1776_1793"/>
<feColorMatrix in="SourceAlpha" type="matrix" values="0 0 0 0 0 0 0 0 0 0 0 0 0 0 0 0 0 0 127 0" result="hardAlpha"/>
<feMorphology radius="3" operator="erode" in="SourceAlpha" result="effect2_dropShadow_1776_1793"/>
<feOffset dy="10"/>
<feGaussianBlur stdDeviation="7.5"/>
<feColorMatrix type="matrix" values="0 0 0 0 0.713726 0 0 0 0 0.941176 0 0 0 0 0.611765 0 0 0 0.16 0"/>
<feBlend mode="normal" in2="effect1_dropShadow_1776_1793" result="effect2_dropShadow_1776_1793"/>
<feBlend mode="normal" in="SourceGraphic" in2="effect2_dropShadow_1776_1793" result="shape"/>
</filter>
</defs>
</svg>
