<svg width="177" height="130"  fill="none" xmlns="http://www.w3.org/2000/svg">
<g filter="url(#filter0_d_319_1187)">
<path d="M64.5 88C64.5 74.7452 75.2452 64 88.5 64C101.755 64 112.5 74.7452 112.5 88C112.5 101.255 101.755 112 88.5 112C75.2452 112 64.5 101.255 64.5 88Z" fill="url(#paint0_linear_319_1187)" fill-opacity="0.16"/>
<g filter="url(#filter1_dd_319_1187)">
<path d="M89.3333 83.8333L82.419 90.7476C82.044 91.1226 81.8333 91.6313 81.8333 92.1618V92.6667C81.8333 93.7712 82.7287 94.6667 83.8333 94.6667H84.3382C84.8686 94.6667 85.3773 94.456 85.7524 94.0809L92.6666 87.1667M89.3333 83.8333L90.419 82.7476C91.2001 81.9665 92.4664 81.9665 93.2475 82.7476L93.7524 83.2525C94.5334 84.0335 94.5334 85.2998 93.7524 86.0809L92.6666 87.1667M89.3333 83.8333L92.6666 87.1667" stroke="#BD9AF8" stroke-width="1.5" stroke-linecap="round" stroke-linejoin="round"/>
</g>
</g>
<defs>
<filter id="filter0_d_319_1187" x="0.5" y="0" width="176" height="176" filterUnits="userSpaceOnUse" color-interpolation-filters="sRGB">
<feFlood flood-opacity="0" result="BackgroundImageFix"/>
<feColorMatrix in="SourceAlpha" type="matrix" values="0 0 0 0 0 0 0 0 0 0 0 0 0 0 0 0 0 0 127 0" result="hardAlpha"/>
<feOffset/>
<feGaussianBlur stdDeviation="32"/>
<feColorMatrix type="matrix" values="0 0 0 0 0.741176 0 0 0 0 0.603922 0 0 0 0 0.972549 0 0 0 0.16 0"/>
<feBlend mode="normal" in2="BackgroundImageFix" result="effect1_dropShadow_319_1187"/>
<feBlend mode="normal" in="SourceGraphic" in2="effect1_dropShadow_319_1187" result="shape"/>
</filter>
<filter id="filter1_dd_319_1187" x="66.5" y="76" width="44" height="44" filterUnits="userSpaceOnUse" color-interpolation-filters="sRGB">
<feFlood flood-opacity="0" result="BackgroundImageFix"/>
<feColorMatrix in="SourceAlpha" type="matrix" values="0 0 0 0 0 0 0 0 0 0 0 0 0 0 0 0 0 0 127 0" result="hardAlpha"/>
<feMorphology radius="4" operator="erode" in="SourceAlpha" result="effect1_dropShadow_319_1187"/>
<feOffset dy="4"/>
<feGaussianBlur stdDeviation="3"/>
<feColorMatrix type="matrix" values="0 0 0 0 0.741176 0 0 0 0 0.603922 0 0 0 0 0.972549 0 0 0 0.16 0"/>
<feBlend mode="normal" in2="BackgroundImageFix" result="effect1_dropShadow_319_1187"/>
<feColorMatrix in="SourceAlpha" type="matrix" values="0 0 0 0 0 0 0 0 0 0 0 0 0 0 0 0 0 0 127 0" result="hardAlpha"/>
<feMorphology radius="3" operator="erode" in="SourceAlpha" result="effect2_dropShadow_319_1187"/>
<feOffset dy="10"/>
<feGaussianBlur stdDeviation="7.5"/>
<feColorMatrix type="matrix" values="0 0 0 0 0.741176 0 0 0 0 0.603922 0 0 0 0 0.972549 0 0 0 0.16 0"/>
<feBlend mode="normal" in2="effect1_dropShadow_319_1187" result="effect2_dropShadow_319_1187"/>
<feBlend mode="normal" in="SourceGraphic" in2="effect2_dropShadow_319_1187" result="shape"/>
</filter>
<linearGradient id="paint0_linear_319_1187" x1="50.8636" y1="23.2453" x2="135.711" y2="67.563" gradientUnits="userSpaceOnUse">
<stop stop-color="#D7EDED"/>
<stop offset="1" stop-color="#CCEBEB" stop-opacity="0"/>
</linearGradient>
</defs>
</svg>
